<?xml version="1.0" encoding="utf-8"?>
<!-- Generator: Adobe Illustrator 18.1.1, SVG Export Plug-In . SVG Version: 6.00 Build 0)  -->
<svg version="1.1" id="Layer_1" xmlns="http://www.w3.org/2000/svg" xmlns:xlink="http://www.w3.org/1999/xlink" x="0px" y="0px"
	 viewBox="0 0 151.4 112.7" enable-background="new 0 0 151.4 112.7" xml:space="preserve">
<g>
	<polygon fill="#013A80" points="145.2,91.9 145.2,92.6 143.3,92.6 143.3,97.6 142.5,97.6 142.5,92.6 140.6,92.6 140.6,91.9 	"/>
	<g>
		<path fill="#013A80" d="M145.9,91.9h1.1l1.6,4.8l1.6-4.8h1.1v5.7h-0.7v-3.4c0-0.1,0-0.3,0-0.6c0-0.3,0-0.6,0-0.9l-1.6,4.8h-0.8
			l-1.7-4.8V93c0,0.1,0,0.4,0,0.6c0,0.3,0,0.5,0,0.6v3.4h-0.7V91.9z"/>
		<path fill="#013A80" d="M7.9,94.1c-2.9,0-5,2.3-4.9,7.7l9.5-1.4C12.5,95.9,10.7,94.1,7.9,94.1 M3.1,103.6c0.4,4.5,2.5,6.7,6.1,6.7
			c2.3,0,3.9-0.6,4.9-1.1l0.8,2.1c-1.2,0.7-3.3,1.4-6,1.4c-5.2,0-8.9-3.3-8.9-10.4C0,95.5,3.3,92,8,92c4.8,0,7.6,3.1,7.6,9.7
			L3.1,103.6z"/>
		<path fill="#013A80" d="M27.1,112.7c-5,0-7.1-2.5-7.1-6.5V92.4h3.2v13.9c0,2.3,1.3,4.1,4,4.1c1.5,0,2.7-0.3,3.6-0.8V92.4h3.2v18.7
			C32.6,112,30.3,112.7,27.1,112.7"/>
		<path fill="#013A80" d="M47.2,94.5c-1.6-0.5-3.5-0.3-4.5,0.4v17.4h-3.3V93.5c2-1,3.8-1.5,8.6-1.4L47.2,94.5z"/>
		<path fill="#013A80" d="M57.8,94.1c-3.8,0-4.5,4.2-4.5,8.3c0,4,0.8,8,4.5,8c3.8,0,4.5-4.1,4.5-8C62.3,98.4,61.6,94.1,57.8,94.1
			 M57.8,112.7c-5.4,0-7.8-4.5-7.8-10.3c0-5.9,2.4-10.3,7.8-10.3c5.5,0,7.8,4.4,7.8,10.3C65.5,108.2,63.2,112.7,57.8,112.7"/>
		<path fill="#013A80" d="M73.9,112.6c-2.1,0-4-0.6-5.1-1.4l0.9-2.1c0.7,0.6,2.1,1.2,3.9,1.2c2.2,0,3.7-1.5,3.7-3.4
			c0-2.1-1.1-3-3.3-3.8c-3.9-1.4-4.7-3.5-4.7-5.6c0-3,2.3-5.5,5.9-5.5c2,0,3.6,0.7,4.7,1.4l-0.8,2c-0.6-0.4-1.8-1.1-3.3-1.1
			c-2.2,0-3.3,1.4-3.3,3.1c0,1.9,1.4,2.8,3.3,3.6c3.9,1.5,4.8,3.5,4.8,5.8C80.6,109.8,77.9,112.6,73.9,112.6"/>
		<path fill="#013A80" d="M90.8,112.5c-3.6,0-4.9-2.6-4.9-5v-13h-2.3v-2h2.3v-4.6l3.2-1v5.6h3.5v2h-3.5v13c0,1.6,0.7,2.9,2.5,2.9
			c0.3,0,0.6-0.1,1-0.1v2.1C92.2,112.3,91.6,112.5,90.8,112.5"/>
		<path fill="#013A80" d="M106.7,101c-5,0.6-8,1.7-8,5.7c0,2.9,1.8,4.1,4.7,4.1c1.3,0,2.5-0.2,3.3-0.7V101z M103.2,112.7
			c-5.2,0-7.6-2.3-7.6-5.9c0-5.3,4.9-6.8,11.1-7.5v-1.2c0-3.1-1.8-4-4.4-4c-1.9,0-3.7,0.7-4.8,1.3l-0.8-1.9c1.1-0.6,3.4-1.5,6.1-1.5
			c3.7,0,6.9,1.6,6.9,6.5v12.8C108.3,112.1,105.9,112.7,103.2,112.7"/>
		<path fill="#013A80" d="M122.8,94.5c-1.6-0.5-3.5-0.3-4.5,0.4v17.4H115V93.5c2-1,3.8-1.5,8.6-1.4L122.8,94.5z"/>
		<path fill="#013A80" d="M130.8,112.6c-2.1,0-4-0.6-5.1-1.4l0.9-2.1c0.7,0.6,2.1,1.2,3.9,1.2c2.2,0,3.7-1.5,3.7-3.4
			c0-2.1-1.1-3-3.3-3.8c-3.9-1.4-4.7-3.5-4.7-5.6c0-3,2.3-5.5,5.9-5.5c2,0,3.6,0.7,4.7,1.4l-0.8,2c-0.6-0.4-1.8-1.1-3.3-1.1
			c-2.2,0-3.3,1.4-3.3,3.1c0,1.9,1.4,2.8,3.3,3.6c3.9,1.5,4.8,3.5,4.8,5.8C137.5,109.8,134.8,112.6,130.8,112.6"/>
		<path fill="#013A80" d="M107.1,38.4c0,21.2-17.2,38.4-38.4,38.4c-21.2,0-38.4-17.2-38.4-38.4C30.3,17.2,47.5,0,68.7,0
			C89.9,0,107.1,17.2,107.1,38.4"/>
		<path fill="#8BC53F" d="M111.3,7.6c0.2-0.4,0.6-0.4,0.8,0l1.9,3.7c0.2,0.4,0.8,0.8,1.3,0.9l4.1,0.6c0.5,0.1,0.6,0.4,0.2,0.7
			l-2.9,2.9c-0.3,0.3-0.5,1-0.5,1.5l0.7,4.1c0.1,0.5-0.2,0.7-0.6,0.5l-3.7-1.9c-0.4-0.2-1.1-0.2-1.5,0l-3.7,2
			c-0.4,0.2-0.7,0-0.6-0.4l0.7-4.1c0.1-0.5-0.1-1.1-0.5-1.5l-3-2.9c-0.3-0.3-0.2-0.7,0.2-0.7l4.1-0.6c0.5-0.1,1-0.5,1.2-0.9
			L111.3,7.6z"/>
		<path fill="#FFFFFF" d="M77.2,19.6c1.8,0,3.2,1.2,3.2,3.4c0,8.4-16.3,14.9-23.5,16.1C60.1,32,70.5,19.6,77.2,19.6 M104.5,24.5
			c-9.7,15.9-34.6,35.6-45.4,35.6c-4.5,0-6-4.3-6-8c0-4,1.3-8.4,3-11.6c10.8-2.3,30-9.6,30-17.3c0-3.2-2.4-5-6.5-5
			c-10.9,0-24.5,11.1-30.6,22.6c-5,0.8-12.1,1.3-18.8-0.3c0,0,0,0.5,0.1,0.9c6.5,1.5,13.2,1.2,18.2,0.5c-1.7,3.4-2.7,6.9-2.7,10
			c0,6.5,3.9,10.1,10.7,10.1c16,0,40.6-23.4,48.4-36.1C104.8,25.3,104.5,24.5,104.5,24.5"/>
	</g>
</g>
</svg>
