<?xml version="1.0" encoding="utf-8"?>
<!-- Generator: Adobe Illustrator 20.1.0, SVG Export Plug-In . SVG Version: 6.00 Build 0)  -->
<svg version="1.1" id="Header" xmlns="http://www.w3.org/2000/svg" xmlns:xlink="http://www.w3.org/1999/xlink" x="0px" y="0px"
	 viewBox="0 0 436 362.5" style="enable-background:new 0 0 436 362.5;" xml:space="preserve">
<style type="text/css">
	.st0{enable-background:new    ;}
	.st1{fill:#FFFFFF;}
	.st2{fill:#53C65C;}
	.st3{fill:#F69679;fill-opacity:0;stroke:#FFFFFF;stroke-width:5;stroke-linejoin:round;}
	.st4{fill:#354044;}
	.st5{font-family:'Montserrat-Bold';}
	.st6{font-size:36px;}
</style>
<g class="st0">
	<path class="st1" d="M172.4,58.7v13h25.1v11.2h-25.1v20.6h-14.2v-56h41.5v11.2H172.4z"/>
</g>
<g class="st0">
	<path class="st1" d="M277,76.4c0,16.3-13,28.7-30.3,28.7c-17.3,0-30.2-12.3-30.2-28.7c0-16.3,13-28.4,30.2-28.4
		C264.1,48,277,60.1,277,76.4z M231,76.5c0,9.4,7.3,16.7,15.8,16.7c8.6,0,15.5-7.3,15.5-16.7c0-9.4-6.9-16.6-15.5-16.6
		C238.2,59.9,231,67,231,76.5z"/>
</g>
<g class="st0">
	<path class="st1" d="M208,165.4c0,16.3-13,28.7-30.3,28.7c-17.3,0-30.2-12.3-30.2-28.7c0-16.3,13-28.4,30.2-28.4
		C195.1,137,208,149.1,208,165.4z M162,165.5c0,9.4,7.3,16.7,15.8,16.7c8.6,0,15.5-7.3,15.5-16.7c0-9.4-6.9-16.6-15.5-16.6
		S162,156,162,165.5z"/>
</g>
<g class="st0">
	<path class="st1" d="M247.2,136.5c17.6,0,29.8,11.4,29.8,28c0,16.6-12.3,28-30.3,28h-23.5v-56H247.2z M237.4,181.1h10.2
		c8.7,0,15-6.7,15-16.6c0-9.9-6.6-16.7-15.6-16.7h-9.5V181.1z"/>
</g>
<rect x="163" y="224.5" class="st1" width="100" height="5"/>
<rect x="163" y="286.5" class="st2" width="100" height="2"/>
<rect x="119" y="11.5" class="st3" width="188" height="248"/>
<g class="st0">
	<path class="st1" d="M31.6,324.1v20h-6.4v-20h-7.5v-5.2h21.5v5.2H31.6z"/>
	<path class="st1" d="M58.7,344.2v-9.8H48.3v9.8h-6.4V319h6.4v10.4h10.4V319h6.4v25.2H58.7z"/>
	<path class="st1" d="M76.6,324v5h12v5h-12v5.1h13.7v5H70.2V319h19.7v5H76.6z"/>
	<path class="st1" d="M109.2,324v5.8h11.3v5h-11.3v9.3h-6.4V319h18.7v5H109.2z"/>
	<path class="st1" d="M147.2,333.6c0,6.7-4.4,10.9-11.5,10.9c-7.1,0-11.6-4.2-11.6-10.9V319h6.4v14.6c0,3.4,2.2,5.5,5.3,5.5
		c3,0,5.1-2.1,5.1-5.5V319h6.4V333.6z"/>
	<path class="st1" d="M163.5,324.1v20h-6.4v-20h-7.5v-5.2h21.5v5.2H163.5z"/>
	<path class="st1" d="M196.5,333.6c0,6.7-4.4,10.9-11.5,10.9c-7.1,0-11.6-4.2-11.6-10.9V319h6.4v14.6c0,3.4,2.2,5.5,5.3,5.5
		c3,0,5.1-2.1,5.1-5.5V319h6.4V333.6z"/>
	<path class="st1" d="M212.6,337.1h-0.2h-4.9v7.1h-6.4V319h11.3c6.7,0,10.5,3.2,10.5,8.8c0,3.9-1.6,6.6-4.6,8.1l5.3,8.3h-7.3
		L212.6,337.1z M212.4,332.1c2.8,0,4.4-1.4,4.4-4.1c0-2.6-1.6-4-4.4-4h-4.9v8H212.4z"/>
	<path class="st1" d="M233.6,324v5h12v5h-12v5.1h13.7v5h-20.1V319h19.7v5H233.6z"/>
	<path class="st1" d="M285.4,331.5c0,7.3-5.8,12.9-13.6,12.9c-7.8,0-13.6-5.5-13.6-12.9c0-7.3,5.8-12.8,13.6-12.8
		C279.6,318.8,285.4,324.2,285.4,331.5z M264.7,331.6c0,4.2,3.3,7.5,7.1,7.5c3.9,0,7-3.3,7-7.5c0-4.2-3.1-7.5-7-7.5
		C267.9,324.1,264.7,327.3,264.7,331.6z"/>
	<path class="st1" d="M295.2,324v5.8h11.3v5h-11.3v9.3h-6.4V319h18.7v5H295.2z"/>
	<path class="st1" d="M325.3,324v5.8h11.3v5h-11.3v9.3h-6.4V319h18.7v5H325.3z"/>
	<path class="st1" d="M366.2,331.5c0,7.3-5.8,12.9-13.6,12.9c-7.8,0-13.6-5.5-13.6-12.9c0-7.3,5.8-12.8,13.6-12.8
		C360.4,318.8,366.2,324.2,366.2,331.5z M345.5,331.6c0,4.2,3.3,7.5,7.1,7.5c3.9,0,7-3.3,7-7.5c0-4.2-3.1-7.5-7-7.5
		S345.5,327.3,345.5,331.6z"/>
	<path class="st1" d="M394.7,331.5c0,7.3-5.8,12.9-13.6,12.9c-7.8,0-13.6-5.5-13.6-12.9c0-7.3,5.8-12.8,13.6-12.8
		C388.9,318.8,394.7,324.2,394.7,331.5z M374,331.6c0,4.2,3.3,7.5,7.1,7.5c3.9,0,7-3.3,7-7.5c0-4.2-3.1-7.5-7-7.5
		S374,327.3,374,331.6z"/>
	<path class="st1" d="M409,319c7.9,0,13.4,5.1,13.4,12.6c0,7.5-5.5,12.6-13.6,12.6h-10.6V319H409z M404.5,339.1h4.6
		c3.9,0,6.7-3,6.7-7.5c0-4.5-3-7.5-7-7.5h-4.3V339.1z"/>
</g>
<text transform="matrix(1 0 0 1 289.0319 344.181)" class="st4 st5 st6"> </text>
</svg>
