<?xml version="1.0" encoding="utf-8"?>
<!-- Generator: Adobe Illustrator 20.1.0, SVG Export Plug-In . SVG Version: 6.00 Build 0)  -->
<svg version="1.1" id="Header" xmlns="http://www.w3.org/2000/svg" xmlns:xlink="http://www.w3.org/1999/xlink" x="0px" y="0px"
	 viewBox="0 0 770 376" style="enable-background:new 0 0 770 376;" xml:space="preserve">
<style type="text/css">
	.st0{opacity:0.9;fill:#53C65C;enable-background:new    ;}
	.st1{enable-background:new    ;}
	.st2{fill:#FFFFFF;}
	.st3{fill:#53C65C;}
	.st4{fill:none;stroke:#FFFFFF;stroke-width:5;stroke-linejoin:round;}
</style>
<rect y="26.6" class="st0" width="770" height="208"/>
<g class="st1">
	<path class="st2" d="M344.4,53.8v13h25.1v11.2h-25.1v20.6h-14.2v-56h41.5v11.2H344.4z"/>
</g>
<g class="st1">
	<path class="st2" d="M449,71.5c0,16.3-13,28.7-30.3,28.7c-17.3,0-30.2-12.3-30.2-28.7c0-16.3,13-28.4,30.2-28.4
		C436.1,43.1,449,55.3,449,71.5z M403,71.6c0,9.4,7.3,16.7,15.8,16.7c8.6,0,15.5-7.3,15.5-16.7c0-9.4-6.9-16.6-15.5-16.6
		C410.2,55,403,62.1,403,71.6z"/>
</g>
<g class="st1">
	<path class="st2" d="M380,160.5c0,16.3-13,28.7-30.3,28.7c-17.3,0-30.2-12.3-30.2-28.7c0-16.3,13-28.4,30.2-28.4
		C367.1,132.1,380,144.3,380,160.5z M334,160.6c0,9.4,7.3,16.7,15.8,16.7c8.6,0,15.5-7.3,15.5-16.7c0-9.4-6.9-16.6-15.5-16.6
		S334,151.1,334,160.6z"/>
</g>
<g class="st1">
	<path class="st2" d="M419.2,131.6c17.6,0,29.8,11.4,29.8,28c0,16.6-12.3,28-30.3,28h-23.5v-56H419.2z M409.4,176.2h10.2
		c8.7,0,15-6.7,15-16.6c0-9.9-6.6-16.7-15.6-16.7h-9.5V176.2z"/>
</g>
<rect x="335" y="219.6" class="st2" width="100" height="5"/>
<rect x="335" y="364.6" class="st3" width="100" height="2"/>
<rect x="291" y="6.6" class="st4" width="188" height="248"/>
<g>
	<g class="st1">
		<path class="st2" d="M183.5,319.2v20h-6.4v-20h-7.5v-5.2h21.5v5.2H183.5z"/>
		<path class="st2" d="M212.5,339.3v-9.8h-10.4v9.8h-6.4v-25.2h6.4v10.4h10.4v-10.4h6.4v25.2H212.5z"/>
		<path class="st2" d="M232.1,319.1v5h12v5h-12v5.1h13.7v5h-20.1v-25.2h19.7v5H232.1z"/>
		<path class="st2" d="M268.4,319.1v5.8h11.3v5h-11.3v9.3H262v-25.2h18.7v5H268.4z"/>
		<path class="st2" d="M308.2,328.7c0,6.7-4.4,10.9-11.5,10.9c-7.1,0-11.6-4.2-11.6-10.9v-14.6h6.4v14.6c0,3.4,2.2,5.5,5.3,5.5
			c3,0,5.1-2.1,5.1-5.5v-14.6h6.4V328.7z"/>
		<path class="st2" d="M326.3,319.2v20h-6.4v-20h-7.5v-5.2h21.5v5.2H326.3z"/>
		<path class="st2" d="M361.1,328.7c0,6.7-4.4,10.9-11.5,10.9c-7.1,0-11.6-4.2-11.6-10.9v-14.6h6.4v14.6c0,3.4,2.2,5.5,5.3,5.5
			c3,0,5.1-2.1,5.1-5.5v-14.6h6.4V328.7z"/>
		<path class="st2" d="M378.9,332.2h-0.2h-4.9v7.1h-6.4v-25.2h11.3c6.7,0,10.5,3.2,10.5,8.8c0,3.9-1.6,6.6-4.6,8.1l5.3,8.3h-7.3
			L378.9,332.2z M378.7,327.2c2.8,0,4.4-1.4,4.4-4.1c0-2.6-1.6-4-4.4-4h-4.9v8H378.7z"/>
		<path class="st2" d="M401.7,319.1v5h12v5h-12v5.1h13.7v5h-20.1v-25.2h19.7v5H401.7z"/>
		<path class="st2" d="M457.1,326.7c0,7.3-5.8,12.9-13.6,12.9c-7.8,0-13.6-5.5-13.6-12.9c0-7.3,5.8-12.8,13.6-12.8
			C451.3,313.9,457.1,319.3,457.1,326.7z M436.4,326.7c0,4.2,3.3,7.5,7.1,7.5c3.9,0,7-3.3,7-7.5c0-4.2-3.1-7.5-7-7.5
			S436.4,322.4,436.4,326.7z"/>
		<path class="st2" d="M468.7,319.1v5.8H480v5h-11.3v9.3h-6.4v-25.2H481v5H468.7z"/>
	</g>
	<g class="st1">
		<path class="st3" d="M503.4,319.1v5.8h11.3v5h-11.3v9.3H497v-25.2h18.7v5H503.4z"/>
		<path class="st3" d="M544.3,326.7c0,7.3-5.8,12.9-13.6,12.9c-7.8,0-13.6-5.5-13.6-12.9c0-7.3,5.8-12.8,13.6-12.8
			C538.5,313.9,544.3,319.3,544.3,326.7z M523.6,326.7c0,4.2,3.3,7.5,7.1,7.5c3.9,0,7-3.3,7-7.5c0-4.2-3.1-7.5-7-7.5
			C526.8,319.2,523.6,322.4,523.6,326.7z"/>
		<path class="st3" d="M572.8,326.7c0,7.3-5.8,12.9-13.6,12.9c-7.8,0-13.6-5.5-13.6-12.9c0-7.3,5.8-12.8,13.6-12.8
			C567,313.9,572.8,319.3,572.8,326.7z M552.1,326.7c0,4.2,3.3,7.5,7.1,7.5c3.9,0,7-3.3,7-7.5c0-4.2-3.1-7.5-7-7.5
			S552.1,322.4,552.1,326.7z"/>
		<path class="st3" d="M587,314.1c7.9,0,13.4,5.1,13.4,12.6c0,7.5-5.5,12.6-13.6,12.6h-10.6v-25.2H587z M582.6,334.2h4.6
			c3.9,0,6.7-3,6.7-7.5c0-4.5-3-7.5-7-7.5h-4.3V334.2z"/>
	</g>
</g>
</svg>
