<?xml version="1.0" encoding="utf-8"?>
<!-- Generator: Adobe Illustrator 20.1.0, SVG Export Plug-In . SVG Version: 6.00 Build 0)  -->
<svg version="1.1" id="Layer_1" xmlns="http://www.w3.org/2000/svg" xmlns:xlink="http://www.w3.org/1999/xlink" x="0px" y="0px"
	 viewBox="0 0 172.7 30.2" style="enable-background:new 0 0 172.7 30.2;" xml:space="preserve">
<g>
	<path d="M3.6,4v2.7h4.2V8H3.6v3.8H2.1V2.6h6.2l0,1.4H3.6z"/>
	<path d="M18.6,7.2c0,2.6-2.1,4.7-4.9,4.7c-2.7,0-4.9-2-4.9-4.7c0-2.6,2.1-4.6,4.9-4.6C16.5,2.6,18.6,4.6,18.6,7.2z M10.4,7.2
		c0,1.8,1.5,3.3,3.3,3.3S17,9,17,7.2C17,5.4,15.5,4,13.7,4C11.9,4,10.4,5.4,10.4,7.2z"/>
	<path d="M24.4,9c-0.1,0-0.3,0-0.4,0h-2.2v2.8h-1.5V2.6H24c2.3,0,3.7,1.1,3.7,3.1c0,1.5-0.7,2.5-1.9,3l2.1,3.1h-1.8L24.4,9z M24,7.7
		c1.4,0,2.2-0.6,2.2-1.9C26.2,4.6,25.4,4,24,4h-2.2v3.6H24z"/>
	<path d="M37.5,11.8l-2.2-7.2l-2.2,7.2h-1.6l-3-9.2h1.7l2.2,7.5l2.2-7.5l1.5,0l2.2,7.5l2.2-7.5h1.6l-3.1,9.2H37.5z"/>
	<path d="M43.9,9.7L43,11.8h-1.6l4.1-9.2H47l4,9.2h-1.7l-0.9-2.1H43.9z M46.2,4.3l-1.7,4.1h3.5L46.2,4.3z"/>
	<path d="M56.4,9c-0.1,0-0.3,0-0.4,0h-2.2v2.8h-1.5V2.6H56c2.3,0,3.7,1.1,3.7,3.1c0,1.5-0.7,2.5-1.9,3l2.1,3.1h-1.8L56.4,9z M56,7.7
		c1.4,0,2.2-0.6,2.2-1.9C58.2,4.6,57.4,4,56,4h-2.2v3.6H56z"/>
	<path d="M65.5,2.6c2.8,0,4.8,1.9,4.8,4.6c0,2.7-2,4.6-4.8,4.6h-3.7V2.6H65.5z M63.3,10.4h2.3c1.8,0,3.1-1.3,3.1-3.2
		c0-1.9-1.4-3.2-3.2-3.2h-2.2V10.4z"/>
	<path d="M80.8,10.4v1.4h-5.5V2.6h1.5v7.8H80.8z"/>
	<path d="M91.3,7.2c0,2.6-2.1,4.7-4.9,4.7s-4.9-2-4.9-4.7c0-2.6,2.1-4.6,4.9-4.6S91.3,4.6,91.3,7.2z M83.1,7.2
		c0,1.8,1.5,3.3,3.3,3.3s3.3-1.4,3.3-3.3c0-1.8-1.5-3.2-3.3-3.2C84.6,4,83.1,5.4,83.1,7.2z"/>
	<path d="M101.5,7.2c0,2.6-2.1,4.7-4.9,4.7c-2.7,0-4.9-2-4.9-4.7c0-2.6,2.1-4.6,4.9-4.6C99.4,2.6,101.5,4.6,101.5,7.2z M93.4,7.2
		c0,1.8,1.5,3.3,3.3,3.3s3.3-1.4,3.3-3.3c0-1.8-1.5-3.2-3.3-3.2C94.9,4,93.4,5.4,93.4,7.2z"/>
	<path d="M106.3,7.8l-1.6,1.7v2.3h-1.5V2.6h1.5v4.8l4.4-4.8h1.8l-3.6,3.9l3.8,5.3h-1.9L106.3,7.8z"/>
	<path d="M112.6,11.8V2.6h1.5v9.2H112.6z"/>
	<path d="M123,11.8l-4.9-6.6v6.6h-1.5V2.6h1.5l4.9,6.6V2.6h1.5v9.2H123z"/>
	<path d="M134.6,7.3v3.4c-0.9,0.7-2.3,1.2-3.6,1.2c-2.7,0-4.8-2-4.8-4.7c0-2.6,2.1-4.6,4.9-4.6c1.3,0,2.6,0.5,3.5,1.3L133.8,5
		c-0.7-0.7-1.7-1-2.7-1c-1.9,0-3.3,1.4-3.3,3.3c0,1.8,1.5,3.3,3.4,3.3c0.7,0,1.5-0.2,2.1-0.6V7.3H134.6z"/>
	<path d="M2.1,27.6v-9.2h1.5v9.2H2.1z"/>
	<path d="M12.5,27.6L7.6,21v6.6H6v-9.2h1.5l4.9,6.6v-6.6H14v9.2H12.5z"/>
	<path d="M18,19.8v2.7h4.2v1.4H18v3.8h-1.5v-9.2h6.2l0,1.4H18z"/>
	<path d="M32.9,23c0,2.6-2.1,4.7-4.9,4.7s-4.9-2-4.9-4.7c0-2.6,2.1-4.6,4.9-4.6S32.9,20.3,32.9,23z M24.8,23c0,1.8,1.5,3.3,3.3,3.3
		s3.3-1.4,3.3-3.3c0-1.8-1.5-3.2-3.3-3.2C26.3,19.7,24.8,21.1,24.8,23z"/>
	<path d="M38.7,24.8c-0.1,0-0.3,0-0.4,0h-2.2v2.8h-1.5v-9.2h3.7c2.3,0,3.7,1.1,3.7,3.1c0,1.5-0.7,2.5-1.9,3l2.1,3.1h-1.8L38.7,24.8z
		 M38.3,23.4c1.4,0,2.2-0.6,2.2-1.9c0-1.2-0.8-1.8-2.2-1.8h-2.2v3.6H38.3z"/>
	<path d="M52.4,27.6l0-6.9l-2.9,5.9h-1l-2.9-5.9v6.9h-1.5v-9.2h1.8l3,6.1l3-6.1h1.8v9.2H52.4z"/>
	<path d="M57.5,25.5l-0.9,2.1H55l4.1-9.2h1.6l4,9.2H63l-0.9-2.1H57.5z M59.8,20l-1.7,4.1h3.5L59.8,20z"/>
	<path d="M68.4,19.8v7.8h-1.5v-7.8h-2.9v-1.4h7.4v1.4H68.4z"/>
	<path d="M72.6,27.6v-9.2h1.5v9.2H72.6z"/>
	<path d="M85.5,23c0,2.6-2.1,4.7-4.9,4.7c-2.7,0-4.9-2-4.9-4.7c0-2.6,2.1-4.6,4.9-4.6C83.4,18.3,85.5,20.3,85.5,23z M77.4,23
		c0,1.8,1.5,3.3,3.3,3.3s3.3-1.4,3.3-3.3c0-1.8-1.5-3.2-3.3-3.2C78.9,19.7,77.4,21.1,77.4,23z"/>
	<path d="M93.6,27.6L88.7,21v6.6h-1.5v-9.2h1.5l4.9,6.6v-6.6h1.5v9.2H93.6z"/>
	<path d="M104.6,18.4c2.3,0,3.6,1.1,3.6,3.1c0,2.1-1.3,3.3-3.6,3.3h-2.1v2.8H101v-9.2H104.6z M102.5,23.4h2c1.4,0,2.2-0.6,2.2-1.9
		c0-1.2-0.8-1.8-2.2-1.8h-2V23.4z"/>
	<path d="M115.3,26.2v1.4h-5.5v-9.2h1.5v7.8H115.3z"/>
	<path d="M118.2,25.5l-0.9,2.1h-1.6l4.1-9.2h1.6l4,9.2h-1.7l-0.9-2.1H118.2z M120.5,20l-1.7,4.1h3.5L120.5,20z"/>
	<path d="M129,19.8v7.8h-1.5v-7.8h-2.9v-1.4h7.4v1.4H129z"/>
	<path d="M134.8,19.8v2.7h4.2v1.4h-4.2v3.8h-1.5v-9.2h6.2l0,1.4H134.8z"/>
	<path d="M149.8,23c0,2.6-2.1,4.7-4.9,4.7c-2.7,0-4.9-2-4.9-4.7c0-2.6,2.1-4.6,4.9-4.6C147.6,18.3,149.8,20.3,149.8,23z M141.6,23
		c0,1.8,1.5,3.3,3.3,3.3s3.3-1.4,3.3-3.3c0-1.8-1.5-3.2-3.3-3.2C143.1,19.7,141.6,21.1,141.6,23z"/>
	<path d="M155.6,24.8c-0.1,0-0.3,0-0.4,0H153v2.8h-1.5v-9.2h3.7c2.3,0,3.7,1.1,3.7,3.1c0,1.5-0.7,2.5-1.9,3l2.1,3.1h-1.8L155.6,24.8
		z M155.2,23.4c1.4,0,2.2-0.6,2.2-1.9c0-1.2-0.8-1.8-2.2-1.8H153v3.6H155.2z"/>
	<path d="M169.2,27.6l0-6.9l-2.9,5.9h-1l-2.9-5.9v6.9h-1.5v-9.2h1.8l3,6.1l3-6.1h1.8v9.2H169.2z"/>
</g>
</svg>
