<svg xmlns:dc="http://purl.org/dc/elements/1.1/" xmlns:cc="http://creativecommons.org/ns#" xmlns:rdf="http://www.w3.org/1999/02/22-rdf-syntax-ns#" xmlns:svg="http://www.w3.org/2000/svg" xmlns="http://www.w3.org/2000/svg" xmlns:xlink="http://www.w3.org/1999/xlink" xmlns:sodipodi="http://sodipodi.sourceforge.net/DTD/sodipodi-0.dtd" xmlns:inkscape="http://www.inkscape.org/namespaces/inkscape" version="1.1" width="100%" height="100%" viewBox="0 0 184.9 47.1" id="Layer_1" xml:space="preserve" inkscape:version="0.48.4 r9939"><metadata id="metadata109"><rdf:RDF><cc:Work rdf:about=""><dc:format>image/svg+xml</dc:format><dc:type rdf:resource="http://purl.org/dc/dcmitype/StillImage"/><dc:title/></cc:Work></rdf:RDF></metadata><defs id="defs107"/>
<path d="m 156.7 26 c 0 1.1 0.9 2 2 2 h 24.1 c 1.1 0 2 -0.9 2 -2 V 2 c 0 -1.1 -0.9 -2 -2 -2 h -24.1 c -1.1 0 -2 0.9 -2 2 v 24" id="path3" style="fill:#221f1f"/>
<g transform="translate(-18.900003,-42.9)" id="g5">
	<defs id="defs7">
		<path d="m 194.3 64.1 c 0 0.9 0.8 1.7 1.7 1.7 0.9 0 1.7 -0.8 1.7 -1.7 0 -0.9 -0.8 -1.7 -1.7 -1.7 -1 0 -1.7 0.8 -1.7 1.7" id="SVGID_1_"/>
	</defs>
	<use id="use10" style="fill:#669900;overflow:visible" x="0" y="0" width="221.1" height="132" xlink:href="#SVGID_1_"/>
	<clipPath id="SVGID_2_">
		<use id="use13" style="overflow:visible" x="0" y="0" width="221.1" height="132" xlink:href="#SVGID_1_"/>
	</clipPath>
	<rect width="3.4" height="3.4" x="194.3" y="62.4" clip-path="url(#SVGID_2_)" id="rect15" style="fill:#669900"/>
</g>
<g transform="translate(-18.900003,-42.9)" id="g17">
	<defs id="defs19">
		<path d="m 196 47.9 c -1.5 0 -3.4 1.4 -2.9 3.4 v 0 l 2.9 10.1 h 0 l 2.9 -10.1 v 0 c 0.4 -2 -1.3 -3.4 -2.9 -3.4 l 0 0" id="SVGID_3_"/>
	</defs>
	<use id="use22" style="fill:#669900;overflow:visible" x="0" y="0" width="221.1" height="132" xlink:href="#SVGID_3_"/>
	<clipPath id="SVGID_4_">
		<use id="use25" style="overflow:visible" x="0" y="0" width="221.1" height="132" xlink:href="#SVGID_3_"/>
	</clipPath>
	<rect width="6.8" height="13.5" x="192.6" y="47.9" clip-path="url(#SVGID_4_)" id="rect27" style="fill:#669900"/>
</g>
<path d="M -0 25.8 V 2.6 C -0 1.4 0.9 0.4 2.2 0.4 h 0 c 0 0 0 0 0.1 0 H 15 c 1.1 0 2.2 0.9 2.2 2.2 0 1.2 -1 2.2 -2.2 2.2 H 4.3 V 12 h 9.1 c 1.2 0 2.2 1 2.2 2.2 0 1.2 -1 2.2 -2.2 2.2 H 4.3 v 7.2 H 14.9 c 1.1 0 2.2 1 2.2 2.2 0 1.2 -1 2.2 -2.2 2.2 H 2.2 c -0.1 0 -0.1 0 -0.1 0 l 0 0 C 0.9 27.9 -0 26.9 -0 25.8" id="path29" style="fill:#669900"/>
<path d="m 34.2 27.9 c -6.3 0 -11.3 -5.1 -11.3 -11.3 v -14 c 0 -1.2 0.9 -2.2 2.2 -2.2 1.2 0 2.2 0.9 2.2 2.2 v 14 c 0 3.8 3.1 7 7 7 3.9 0 7 -3.1 7 -7 v -14 c 0 -1.2 1 -2.2 2.2 -2.2 1.2 0 2.2 0.9 2.2 2.2 v 14 c -0.2 6.2 -5.2 11.3 -11.5 11.3" id="path31" style="fill:#669900"/>
<path d="m 71.5 24.7 c 0.4 1.1 -0.2 2.4 -1.4 2.7 -0.2 0 -0.5 0.1 -0.9 0.1 0 0 0 0 0 0 -0.4 0 -1 -0.1 -1.5 -0.4 -0.5 -0.3 -0.9 -0.8 -1.3 -1.4 -0.6 -1.1 -0.8 -2.6 -0.8 -4.7 0 -0.7 -0.2 -1.3 -0.5 -1.7 -0.2 -0.4 -0.7 -0.8 -1.2 -1.1 -0.8 -0.5 -1.8 -0.9 -2.2 -0.9 h -4.6 v 8.5 c 0 1.2 -1 2.2 -2.2 2.2 -1.2 0 -2.2 -1 -2.2 -2.2 V 2.6 c 0 -1.2 0.9 -2.2 2.2 -2.2 0 0 0 0 0 0 h 7 c 4.7 0 8.4 3.8 8.4 8.4 0 2.6 -1.2 4.9 -3.1 6.4 0.5 0.4 1 0.9 1.4 1.5 0.8 1.1 1.3 2.6 1.3 4.2 0 1.2 0.1 1.9 0.2 2.3 0.7 0.3 1.2 0.8 1.4 1.5 m -5.4 -15.8 c 0 -2.3 -1.8 -4.1 -4 -4.1 h -4.8 v 8.1 h 4.8 c 2.2 0 4 -1.8 4 -4 z" id="path33" style="fill:#669900"/>
<path d="M 77.5 25.8 V 2.6 c 0 -1.2 0.9 -2.2 2.2 -2.2 h 0 c 0 0 0 0 0.1 0 h 12.7 c 1.1 0 2.2 0.9 2.2 2.2 0 1.2 -1 2.2 -2.2 2.2 h -10.6 V 12 h 9.1 c 1.2 0 2.2 1 2.2 2.2 0 1.2 -1 2.2 -2.2 2.2 h -9.1 v 7.2 h 10.6 c 1.1 0 2.2 1 2.2 2.2 0 1.2 -1 2.2 -2.2 2.2 h -12.7 c -0.1 0 -0.1 0 -0.1 0 l 0 0 c -1.3 -0.1 -2.2 -1.1 -2.2 -2.2" id="path35" style="fill:#669900"/>
<path d="m 100.4 25.8 v -23 c 0 -1.1 0.9 -2.2 2.2 -2.2 1.2 0 2.2 1 2.2 2.2 V 14.1 L 117.5 1.4 c 0.9 -0.9 2.2 -0.9 3.1 0 0.8 0.8 0.8 2.2 0 3.1 l -8.6 8.6 8.7 11.4 c 0.8 0.9 0.6 2.3 -0.3 3 -0.4 0.4 -0.9 0.5 -1.4 0.5 -0.6 0 -1.2 -0.3 -1.6 -0.8 l -8.5 -11.1 -4.1 4.2 v 5.6 c 0 1.2 -0.9 2.2 -2.2 2.2 -1.3 -0.2 -2.2 -1.2 -2.2 -2.3" id="path37" style="fill:#669900"/>
<path d="m 142 21.5 h -9.5 l -1.9 5.1 c -0.4 0.9 -1.2 1.4 -2 1.4 -0.3 0 -0.5 0 -0.7 -0.1 -1.1 -0.4 -1.7 -1.7 -1.3 -2.8 L 135.3 2 c 0.4 -0.9 1.2 -1.4 2.1 -1.4 0.9 0 1.7 0.5 2.1 1.4 l 8.7 23.1 c 0.4 1.1 -0.2 2.4 -1.3 2.8 -0.2 0.1 -0.5 0.1 -0.7 0.1 -0.9 0 -1.7 -0.5 -2 -1.4 L 142 21.5 m -1.6 -4.4 -3.2 -8.4 -3.1 8.4 h 6.3 z" id="path39" style="fill:#669900"/>
<path d="m 0.2 37.7 c 0 -0.2 0.2 -0.4 0.3 -0.4 0.2 0 0.4 0.2 0.4 0.4 v 0.4 c 0 0.2 -0.2 0.4 -0.4 0.4 -0.2 0 -0.3 -0.2 -0.3 -0.4 v -0.4 m 0 2.4 c 0 -0.2 0.2 -0.3 0.3 -0.3 0.2 0 0.4 0.1 0.4 0.3 v 6.4 c 0 0.2 -0.2 0.4 -0.4 0.4 -0.2 0 -0.3 -0.2 -0.3 -0.4 v -6.4 z" id="path41" style="fill:#221f1f"/>
<path d="m 9.4 42.6 c 0 -1.2 -1 -2.2 -2.2 -2.2 -1.2 0 -2.2 1 -2.2 2.2 v 3.9 c 0 0.1 0 0.1 -0.1 0.2 -0.1 0.1 -0.2 0.1 -0.3 0.1 h -0.1 c -0.1 0 -0.2 -0.1 -0.2 -0.2 0 0 0 0 0 0 0 0 0 0 0 0 v -6.5 c 0 -0.2 0.1 -0.4 0.3 -0.4 0.2 0 0.3 0.2 0.3 0.4 v 0.7 c 0.5 -0.6 1.3 -1 2.2 -1 1.6 0 2.9 1.3 2.9 2.9 v 3.9 c 0 0.2 -0.2 0.3 -0.3 0.3 -0.2 0 -0.3 -0.1 -0.3 -0.3 v -4" id="path43" style="fill:#221f1f"/>
<path d="m 18.3 42.6 c 0 -1.2 -1 -2.2 -2.2 -2.2 -1.2 0 -2.2 1 -2.2 2.2 v 3.9 c 0 0.1 0 0.1 -0.1 0.2 -0.1 0.1 -0.2 0.1 -0.3 0.1 h -0.1 c -0.1 0 -0.2 -0.1 -0.2 -0.2 0 0 0 0 0 0 0 0 0 0 0 0 v -6.5 c 0 -0.2 0.1 -0.4 0.3 -0.4 0.2 0 0.3 0.2 0.3 0.4 v 0.7 c 0.5 -0.6 1.3 -1 2.2 -1 1.6 0 2.9 1.3 2.9 2.9 v 3.9 c 0 0.2 -0.2 0.3 -0.3 0.3 -0.2 0 -0.3 -0.1 -0.3 -0.3 v -4" id="path45" style="fill:#221f1f"/>
<path d="m 25.2 39.7 c 1.9 0 3.4 1.6 3.4 3.6 0 1.9 -1.5 3.6 -3.4 3.6 -1.9 0 -3.4 -1.6 -3.4 -3.6 0 -1.9 1.5 -3.6 3.4 -3.6 m 0 6.5 c 1.5 0 2.7 -1.3 2.7 -2.9 0 -1.6 -1.2 -2.9 -2.7 -2.9 -1.5 0 -2.7 1.3 -2.7 2.9 0 1.6 1.2 2.9 2.7 2.9 z" id="path47" style="fill:#221f1f"/>
<path d="m 33.1 46.8 c 0 0 -0.1 -0.1 -0.1 -0.2 l -2.7 -6.4 c -0.1 -0.2 0 -0.4 0.2 -0.5 0.2 -0.1 0.4 0 0.5 0.2 l 2.4 5.6 2.4 -5.6 c 0.1 -0.2 0.3 -0.3 0.5 -0.2 0.2 0.1 0.2 0.3 0.2 0.5 l -2.7 6.3 c 0 0.1 0 0.1 -0.1 0.2 -0.1 0.1 -0.2 0.1 -0.2 0.1 0 0 -0.1 0 -0.1 0 -0.2 0 -0.2 0 -0.3 0 0.1 0 0 0 0 0" id="path49" style="fill:#221f1f"/>
<path d="m 44.9 40.1 v 6.4 c 0 0.2 -0.2 0.4 -0.4 0.4 -0.2 0 -0.3 -0.2 -0.3 -0.4 v -1.1 c -0.6 0.8 -1.6 1.4 -2.7 1.4 -1.9 0 -3.4 -1.6 -3.4 -3.6 0 -2 1.5 -3.6 3.4 -3.6 1.1 0 2.1 0.6 2.7 1.4 v -1 c 0 -0.2 0.2 -0.4 0.3 -0.4 0.3 0.1 0.4 0.3 0.4 0.5 m -0.7 3.2 c 0 -1.6 -1.2 -2.9 -2.7 -2.9 -1.5 0 -2.7 1.3 -2.7 2.9 0 1.6 1.2 2.9 2.7 2.9 1.5 0 2.7 -1.3 2.7 -2.9 z" id="path51" style="fill:#221f1f"/>
<path d="m 50.5 40.1 c 0 0.2 -0.2 0.4 -0.4 0.4 h -0.9 v 5.2 c 0 0.4 0.3 0.5 0.5 0.5 0.2 0 0.4 0.2 0.4 0.4 0 0.2 -0.2 0.4 -0.4 0.4 -0.7 0 -1.3 -0.5 -1.3 -1.2 v -5.2 h -0.9 c -0.4 0 -0.4 -0.2 -0.4 -0.4 0 -0.2 0 -0.3 0.4 -0.3 h 0.9 v -2.8 c 0 -0.2 0.2 -0.4 0.4 -0.4 0.2 0 0.4 0.2 0.4 0.4 v 2.7 h 0.9 c 0.2 -0.1 0.4 0.1 0.4 0.3" id="path53" style="fill:#221f1f"/>
<path d="m 53.8 37.7 c 0 -0.2 0.2 -0.4 0.3 -0.4 0.2 0 0.4 0.2 0.4 0.4 v 0.4 c 0 0.2 -0.2 0.4 -0.4 0.4 -0.2 0 -0.3 -0.2 -0.3 -0.4 v -0.4 m 0 2.4 c 0 -0.2 0.2 -0.3 0.3 -0.3 0.2 0 0.4 0.1 0.4 0.3 v 6.4 c 0 0.2 -0.2 0.4 -0.4 0.4 -0.2 0 -0.3 -0.2 -0.3 -0.4 v -6.4 z" id="path55" style="fill:#221f1f"/>
<path d="m 60.9 39.7 c 1.9 0 3.4 1.6 3.4 3.6 0 1.9 -1.5 3.6 -3.4 3.6 -1.9 0 -3.4 -1.6 -3.4 -3.6 0.1 -1.9 1.6 -3.6 3.4 -3.6 m 0 6.5 c 1.5 0 2.7 -1.3 2.7 -2.9 0 -1.6 -1.2 -2.9 -2.7 -2.9 -1.5 0 -2.7 1.3 -2.7 2.9 0.1 1.6 1.3 2.9 2.7 2.9 z" id="path57" style="fill:#221f1f"/>
<path d="m 72.1 42.6 c 0 -1.2 -1 -2.2 -2.2 -2.2 -1.2 0 -2.2 1 -2.2 2.2 v 3.9 c 0 0.1 0 0.1 -0.1 0.2 -0.1 0.1 -0.2 0.1 -0.3 0.1 h -0.1 c -0.1 0 -0.2 -0.1 -0.2 -0.2 0 0 0 0 0 0 0 0 0 0 0 0 v -6.5 c 0 -0.2 0.1 -0.4 0.3 -0.4 0.2 0 0.3 0.2 0.3 0.4 v 0.7 c 0.5 -0.6 1.3 -1 2.2 -1 1.6 0 2.9 1.3 2.9 2.9 v 3.9 c 0 0.2 -0.2 0.3 -0.4 0.3 -0.2 0 -0.3 -0.1 -0.3 -0.3 v -4" id="path59" style="fill:#221f1f"/>
<path d="m 86.3 40.1 v 6.4 c 0 0.2 -0.2 0.4 -0.4 0.4 -0.2 0 -0.3 -0.2 -0.3 -0.4 v -1.1 c -0.6 0.8 -1.6 1.4 -2.7 1.4 -1.9 0 -3.4 -1.6 -3.4 -3.6 0 -2 1.5 -3.6 3.4 -3.6 1.1 0 2.1 0.6 2.7 1.4 v -1 c 0 -0.2 0.2 -0.4 0.3 -0.4 0.2 0.1 0.4 0.3 0.4 0.5 m -0.7 3.2 c 0 -1.6 -1.2 -2.9 -2.7 -2.9 -1.5 0 -2.7 1.3 -2.7 2.9 0 1.6 1.2 2.9 2.7 2.9 1.5 0 2.7 -1.3 2.7 -2.9 z" id="path61" style="fill:#221f1f"/>
<path d="m 88.8 43.3 c 0 -2 1.6 -3.6 3.7 -3.6 0.8 0 1.6 0.3 2.3 0.8 0.1 0.1 0.2 0.3 0 0.5 -0.1 0.1 -0.3 0.2 -0.5 0.1 -0.5 -0.4 -1.2 -0.6 -1.8 -0.6 -1.7 0 -3 1.3 -3 2.9 0 1.6 1.3 2.9 3 2.9 0.7 0 1.3 -0.2 1.8 -0.6 0.2 -0.1 0.4 -0.1 0.5 0.1 0.1 0.2 0.1 0.4 -0.1 0.5 -0.6 0.5 -1.4 0.8 -2.2 0.8 -2.1 -0.2 -3.7 -1.8 -3.7 -3.8" id="path63" style="fill:#221f1f"/>
<path d="m 97.7 40.1 c 0 -0.2 0.2 -0.3 0.4 -0.3 0.2 0 0.3 0.1 0.3 0.3 v 1.6 c 0 -0.1 0.1 -0.1 0.1 -0.2 0.5 -0.8 1.5 -1.7 2.9 -1.7 0.2 0 0.3 0.1 0.3 0.3 0 0.2 -0.2 0.4 -0.3 0.4 -0.9 0 -1.6 0.5 -2.1 1.2 -0.5 0.6 -0.8 1.4 -0.9 1.7 0 0.1 0 0.1 0 0.1 v 3.1 c 0 0.2 -0.2 0.3 -0.3 0.3 -0.2 0 -0.4 -0.1 -0.4 -0.3 v -6.5" id="path65" style="fill:#221f1f"/>
<path d="m 106.7 39.7 c 1.9 0 3.4 1.6 3.4 3.6 0 1.9 -1.5 3.6 -3.4 3.6 -1.9 0 -3.4 -1.6 -3.4 -3.6 0.1 -1.9 1.6 -3.6 3.4 -3.6 m 0 6.5 c 1.5 0 2.7 -1.3 2.7 -2.9 0 -1.6 -1.2 -2.9 -2.7 -2.9 -1.5 0 -2.7 1.3 -2.7 2.9 0.1 1.6 1.3 2.9 2.7 2.9 z" id="path67" style="fill:#221f1f"/>
<path d="m 112.3 45.4 c 0.1 -0.1 0.3 -0.2 0.5 0 0.5 0.4 1.3 0.8 2.2 0.8 0.6 0 1 -0.2 1.4 -0.4 0.4 -0.2 0.5 -0.6 0.5 -0.9 0 -0.3 -0.1 -0.6 -0.5 -0.9 -0.3 -0.2 -0.8 -0.4 -1.5 -0.5 l 0 0 c -0.6 -0.1 -1.2 -0.3 -1.6 -0.6 -0.5 -0.3 -0.8 -0.7 -0.8 -1.3 0 -0.6 0.3 -1.1 0.8 -1.4 0.4 -0.3 1 -0.5 1.7 -0.5 0.9 0 1.6 0.4 2.1 0.8 0.2 0.1 0.2 0.3 0.1 0.5 -0.1 0.2 -0.3 0.2 -0.5 0.1 -0.5 -0.3 -1 -0.7 -1.7 -0.7 -0.6 0 -1.1 0.2 -1.4 0.4 -0.3 0.2 -0.5 0.5 -0.5 0.8 0 0.3 0.1 0.5 0.4 0.7 0.3 0.2 0.8 0.4 1.5 0.5 h 0 c 0.7 0.1 1.2 0.3 1.7 0.6 0.5 0.3 0.8 0.9 0.8 1.5 0 0.6 -0.3 1.1 -0.8 1.4 -0.5 0.4 -1.1 0.6 -1.8 0.6 -1.2 0 -2.1 -0.6 -2.6 -1 -0.1 -0.2 -0.1 -0.4 0 -0.5" id="path69" style="fill:#221f1f"/>
<path d="m 119.3 45.4 c 0.1 -0.1 0.3 -0.2 0.5 0 0.5 0.4 1.3 0.8 2.2 0.8 0.6 0 1 -0.2 1.4 -0.4 0.3 -0.2 0.5 -0.6 0.5 -0.9 0 -0.3 -0.1 -0.6 -0.5 -0.9 -0.3 -0.2 -0.8 -0.4 -1.5 -0.5 l 0 0 c -0.6 -0.1 -1.2 -0.3 -1.6 -0.6 -0.5 -0.3 -0.8 -0.7 -0.8 -1.3 0 -0.6 0.3 -1.1 0.8 -1.4 0.4 -0.3 1 -0.5 1.7 -0.5 0.9 0 1.6 0.4 2.1 0.8 0.2 0.1 0.2 0.3 0.1 0.5 -0.1 0.2 -0.3 0.2 -0.5 0.1 -0.5 -0.3 -1.1 -0.7 -1.7 -0.7 -0.6 0 -1.1 0.2 -1.4 0.4 -0.3 0.2 -0.5 0.5 -0.5 0.8 0 0.3 0.1 0.5 0.4 0.7 0.3 0.2 0.8 0.4 1.5 0.5 h 0 c 0.7 0.1 1.2 0.3 1.7 0.6 0.5 0.3 0.8 0.9 0.8 1.5 0 0.6 -0.3 1.1 -0.8 1.4 -0.5 0.4 -1.1 0.6 -1.8 0.6 -1.2 0 -2.1 -0.6 -2.6 -1 -0.1 -0.2 -0.1 -0.4 0 -0.5" id="path71" style="fill:#221f1f"/>
<path d="m 131.4 43.5 v -6.4 c 0 -0.2 0.2 -0.3 0.3 -0.3 0.2 0 0.4 0.2 0.4 0.3 v 4 c 0.6 -0.8 1.6 -1.4 2.7 -1.4 1.9 0 3.5 1.6 3.5 3.6 0 2 -1.5 3.6 -3.5 3.6 -1.1 0 -2.1 -0.5 -2.7 -1.4 v 1 c 0 0.2 -0.2 0.4 -0.4 0.4 -0.2 0 -0.3 -0.2 -0.3 -0.4 v -3 m 0.7 -0.2 c 0 1.6 1.2 2.8 2.7 2.8 1.5 0 2.7 -1.3 2.7 -2.8 0 -1.6 -1.2 -2.9 -2.7 -2.9 -1.5 0 -2.7 1.2 -2.7 2.8 v 0.1 z" id="path73" style="fill:#221f1f"/>
<path d="m 144 39.7 c 1.9 0 3.4 1.6 3.4 3.6 0 1.9 -1.5 3.6 -3.4 3.6 -1.9 0 -3.4 -1.6 -3.4 -3.6 0.1 -1.9 1.6 -3.6 3.4 -3.6 m 0 6.5 c 1.5 0 2.7 -1.3 2.7 -2.9 0 -1.6 -1.2 -2.9 -2.7 -2.9 -1.5 0 -2.7 1.3 -2.7 2.9 0.1 1.6 1.3 2.9 2.7 2.9 z" id="path75" style="fill:#221f1f"/>
<path d="m 149.8 40.1 c 0 -0.2 0.2 -0.3 0.4 -0.3 0.2 0 0.3 0.1 0.3 0.3 v 1.6 c 0 -0.1 0.1 -0.1 0.1 -0.2 0.5 -0.8 1.5 -1.7 2.9 -1.7 0.2 0 0.3 0.1 0.3 0.3 0 0.2 -0.2 0.4 -0.3 0.4 -0.9 0 -1.6 0.5 -2.1 1.2 -0.5 0.6 -0.8 1.4 -0.9 1.7 0 0.1 0 0.1 0 0.1 v 3.1 c 0 0.2 -0.2 0.3 -0.3 0.3 -0.2 0 -0.4 -0.1 -0.4 -0.3 v -6.5" id="path77" style="fill:#221f1f"/>
<path d="m 161.6 45.5 c -0.6 0.8 -1.6 1.4 -2.7 1.4 -1.9 0 -3.5 -1.6 -3.5 -3.6 0 -2 1.5 -3.6 3.5 -3.6 1.1 0 2.1 0.6 2.7 1.4 V 37 c 0 -0.2 0.2 -0.4 0.4 -0.4 0.2 0 0.3 0.2 0.3 0.4 v 9.5 c 0 0.2 -0.2 0.3 -0.3 0.3 -0.2 0 -0.4 -0.2 -0.4 -0.3 v -1 m 0 -2.1 v -0.2 c -0.1 -1.5 -1.3 -2.8 -2.7 -2.8 -1.5 0 -2.7 1.3 -2.7 2.9 0 1.6 1.2 2.8 2.7 2.8 1.4 0.1 2.6 -1.2 2.7 -2.7 z" id="path79" style="fill:#221f1f"/>
<path d="m 164.7 43.3 c 0 -2 1.5 -3.6 3.5 -3.6 1.8 0 3.3 1.5 3.4 3.3 v 0.1 c 0 0.2 -0.2 0.3 -0.3 0.3 h -5.9 c 0.1 1.6 1.3 2.7 2.8 2.7 0.9 0 1.8 -0.5 2.3 -1.3 0.1 -0.2 0.3 -0.2 0.5 -0.1 0.2 0.1 0.2 0.3 0.1 0.5 -0.6 1 -1.7 1.6 -2.9 1.6 -1.9 0.1 -3.5 -1.5 -3.5 -3.5 m 0.8 -0.6 h 5.4 c -0.2 -1.3 -1.4 -2.3 -2.7 -2.3 -1.3 0 -2.5 1 -2.7 2.3 z" id="path81" style="fill:#221f1f"/>
<path d="m 173.8 40.1 c 0 -0.2 0.2 -0.3 0.4 -0.3 0.2 0 0.3 0.1 0.3 0.3 v 1.6 c 0 -0.1 0.1 -0.1 0.1 -0.2 0.5 -0.8 1.5 -1.7 2.9 -1.7 0.2 0 0.3 0.1 0.3 0.3 0 0.2 -0.2 0.4 -0.3 0.4 -0.9 0 -1.6 0.5 -2.1 1.2 -0.5 0.6 -0.8 1.4 -0.9 1.7 0 0.1 0 0.1 0 0.1 v 3.1 c 0 0.2 -0.2 0.3 -0.3 0.3 -0.2 0 -0.4 -0.1 -0.4 -0.3 v -6.5" id="path83" style="fill:#221f1f"/>
<path d="m 179.7 45.4 c 0.1 -0.1 0.3 -0.2 0.5 0 0.5 0.4 1.3 0.8 2.2 0.8 0.6 0 1 -0.2 1.4 -0.4 0.3 -0.2 0.5 -0.6 0.5 -0.9 0 -0.3 -0.1 -0.6 -0.5 -0.9 -0.3 -0.2 -0.8 -0.4 -1.5 -0.5 l 0 0 c -0.6 -0.1 -1.2 -0.3 -1.6 -0.6 -0.5 -0.3 -0.8 -0.7 -0.8 -1.3 0 -0.6 0.3 -1.1 0.8 -1.4 0.4 -0.3 1 -0.5 1.7 -0.5 0.9 0 1.6 0.4 2.1 0.8 0.2 0.1 0.2 0.3 0.1 0.5 -0.1 0.2 -0.3 0.2 -0.5 0.1 -0.5 -0.3 -1 -0.7 -1.7 -0.7 -0.6 0 -1 0.2 -1.4 0.4 -0.3 0.2 -0.5 0.5 -0.5 0.8 0 0.3 0.1 0.5 0.4 0.7 0.3 0.2 0.8 0.4 1.5 0.5 h 0 c 0.7 0.1 1.2 0.3 1.7 0.6 0.5 0.3 0.8 0.9 0.8 1.5 0 0.6 -0.3 1.1 -0.8 1.4 -0.5 0.4 -1.1 0.6 -1.8 0.6 -1.2 0 -2.1 -0.6 -2.6 -1 -0.1 -0.2 -0.1 -0.4 0 -0.5" id="path85" style="fill:#221f1f"/>
<path d="m 172.6 6.8 c 0 0.6 -0.5 1.1 -1 1.1 -0.6 0 -1 -0.5 -1 -1.1 0 -0.6 0.5 -1.1 1 -1.1 0.5 0.1 1 0.6 1 1.1" id="path87" style="fill:#ffffff"/>
<path d="m 162.5 6.8 c 0 0.6 -0.5 1.1 -1 1.1 -0.6 0 -1 -0.5 -1 -1.1 0 -0.6 0.5 -1.1 1 -1.1 0.5 0.1 1 0.6 1 1.1" id="path89" style="fill:#ffffff"/>
<rect width="10.4" height="2.1" x="161.3" y="5.8" id="rect91" style="fill:#ffffff"/>
<path d="m 172.5 21.4 c 0 0.6 -0.5 1 -1 1 -0.6 0 -1 -0.5 -1 -1 0 -0.6 0.5 -1 1 -1 0.5 -0.1 1 0.4 1 1" id="path93" style="fill:#ffffff"/>
<path d="m 162.4 21.3 c 0 0.6 -0.5 1.1 -1.1 1.1 -0.6 0 -1 -0.5 -1 -1.1 0 -0.6 0.5 -1.1 1 -1.1 0.6 0.1 1.1 0.6 1.1 1.1" id="path95" style="fill:#ffffff"/>
<polyline points="171.5,22.4 161.3,22.4 161.3,20.3 171.5,20.3 171.5,22.4" id="polyline97" style="fill:#ffffff"/>
<path d="m 169.3 14.8 c -0.4 0.4 -1.1 0.4 -1.5 0 -0.4 -0.4 -0.4 -1.1 0 -1.5 0.4 -0.4 1.1 -0.4 1.5 0 0.4 0.4 0.4 1.1 0 1.5" id="path99" style="fill:#ffffff"/>
<polyline points="167.9,14.9 160.6,7.5 162,6 169.4,13.4 167.9,14.9" id="polyline101" style="fill:#ffffff"/>
<polyline points="169.4,14.7 162.1,22.1 160.6,20.6 167.9,13.2 169.4,14.7" id="polyline103" style="fill:#ffffff"/>
</svg>
